<mxfile host="Electron" agent="Mozilla/5.0 (X11; Linux x86_64) AppleWebKit/537.36 (KHTML, like Gecko) draw.io/26.2.15 Chrome/134.0.6998.205 Electron/35.2.1 Safari/537.36" version="26.2.15">
  <diagram name="Page-1" id="edBKQpFsxcSmHq_RBH_f">
    <mxGraphModel dx="706" dy="632" grid="1" gridSize="10" guides="1" tooltips="1" connect="1" arrows="1" fold="1" page="1" pageScale="1" pageWidth="850" pageHeight="1100" math="0" shadow="0">
      <root>
        <mxCell id="0" />
        <mxCell id="1" parent="0" />
        <mxCell id="mBkIHYVoxlbKdLeYpv-V-1" value="Wind" style="rounded=0;whiteSpace=wrap;html=1;" vertex="1" parent="1">
          <mxGeometry x="301" y="180" width="120" height="60" as="geometry" />
        </mxCell>
        <mxCell id="mBkIHYVoxlbKdLeYpv-V-2" value="" style="endArrow=none;html=1;rounded=0;entryX=0.5;entryY=1;entryDx=0;entryDy=0;exitX=0.5;exitY=0;exitDx=0;exitDy=0;" edge="1" parent="1" source="mBkIHYVoxlbKdLeYpv-V-7" target="mBkIHYVoxlbKdLeYpv-V-1">
          <mxGeometry width="50" height="50" relative="1" as="geometry">
            <mxPoint x="240" y="320" as="sourcePoint" />
            <mxPoint x="390" y="300" as="targetPoint" />
          </mxGeometry>
        </mxCell>
        <mxCell id="mBkIHYVoxlbKdLeYpv-V-4" value="Weak" style="edgeLabel;html=1;align=center;verticalAlign=middle;resizable=0;points=[];" vertex="1" connectable="0" parent="mBkIHYVoxlbKdLeYpv-V-2">
          <mxGeometry x="0.0161" y="3" relative="1" as="geometry">
            <mxPoint as="offset" />
          </mxGeometry>
        </mxCell>
        <mxCell id="mBkIHYVoxlbKdLeYpv-V-5" value="" style="endArrow=none;html=1;rounded=0;entryX=0.5;entryY=1;entryDx=0;entryDy=0;exitX=0.5;exitY=0;exitDx=0;exitDy=0;" edge="1" parent="1" source="mBkIHYVoxlbKdLeYpv-V-22" target="mBkIHYVoxlbKdLeYpv-V-1">
          <mxGeometry width="50" height="50" relative="1" as="geometry">
            <mxPoint x="480" y="320" as="sourcePoint" />
            <mxPoint x="400" y="320" as="targetPoint" />
          </mxGeometry>
        </mxCell>
        <mxCell id="mBkIHYVoxlbKdLeYpv-V-6" value="Strong" style="edgeLabel;html=1;align=center;verticalAlign=middle;resizable=0;points=[];" vertex="1" connectable="0" parent="mBkIHYVoxlbKdLeYpv-V-5">
          <mxGeometry x="0.0214" y="-1" relative="1" as="geometry">
            <mxPoint as="offset" />
          </mxGeometry>
        </mxCell>
        <mxCell id="mBkIHYVoxlbKdLeYpv-V-7" value="Outlook" style="rounded=0;whiteSpace=wrap;html=1;" vertex="1" parent="1">
          <mxGeometry x="181" y="320" width="120" height="60" as="geometry" />
        </mxCell>
        <mxCell id="mBkIHYVoxlbKdLeYpv-V-8" value="" style="endArrow=none;html=1;rounded=0;entryX=0.5;entryY=1;entryDx=0;entryDy=0;exitX=0.5;exitY=0;exitDx=0;exitDy=0;" edge="1" parent="1" source="mBkIHYVoxlbKdLeYpv-V-9" target="mBkIHYVoxlbKdLeYpv-V-7">
          <mxGeometry width="50" height="50" relative="1" as="geometry">
            <mxPoint x="160" y="440" as="sourcePoint" />
            <mxPoint x="400" y="320" as="targetPoint" />
          </mxGeometry>
        </mxCell>
        <mxCell id="mBkIHYVoxlbKdLeYpv-V-11" value="Sunny" style="edgeLabel;html=1;align=center;verticalAlign=middle;resizable=0;points=[];" vertex="1" connectable="0" parent="mBkIHYVoxlbKdLeYpv-V-8">
          <mxGeometry x="0.0156" y="2" relative="1" as="geometry">
            <mxPoint as="offset" />
          </mxGeometry>
        </mxCell>
        <mxCell id="mBkIHYVoxlbKdLeYpv-V-9" value="Humidity" style="rounded=0;whiteSpace=wrap;html=1;" vertex="1" parent="1">
          <mxGeometry x="50" y="440" width="120" height="60" as="geometry" />
        </mxCell>
        <mxCell id="mBkIHYVoxlbKdLeYpv-V-10" value="High" style="endArrow=none;html=1;rounded=0;entryX=0.5;entryY=1;entryDx=0;entryDy=0;" edge="1" parent="1" source="mBkIHYVoxlbKdLeYpv-V-12" target="mBkIHYVoxlbKdLeYpv-V-9">
          <mxGeometry width="50" height="50" relative="1" as="geometry">
            <mxPoint x="80" y="560" as="sourcePoint" />
            <mxPoint x="400" y="580" as="targetPoint" />
            <Array as="points" />
          </mxGeometry>
        </mxCell>
        <mxCell id="mBkIHYVoxlbKdLeYpv-V-12" value="No" style="text;html=1;align=center;verticalAlign=middle;resizable=0;points=[];autosize=1;strokeColor=none;fillColor=none;" vertex="1" parent="1">
          <mxGeometry x="40" y="550" width="40" height="30" as="geometry" />
        </mxCell>
        <mxCell id="mBkIHYVoxlbKdLeYpv-V-13" value="" style="endArrow=none;html=1;rounded=0;entryX=0.5;entryY=1;entryDx=0;entryDy=0;" edge="1" parent="1" source="mBkIHYVoxlbKdLeYpv-V-15" target="mBkIHYVoxlbKdLeYpv-V-9">
          <mxGeometry width="50" height="50" relative="1" as="geometry">
            <mxPoint x="200" y="560" as="sourcePoint" />
            <mxPoint x="400" y="580" as="targetPoint" />
          </mxGeometry>
        </mxCell>
        <mxCell id="mBkIHYVoxlbKdLeYpv-V-14" value="Normal" style="edgeLabel;html=1;align=center;verticalAlign=middle;resizable=0;points=[];" vertex="1" connectable="0" parent="mBkIHYVoxlbKdLeYpv-V-13">
          <mxGeometry x="0.0385" relative="1" as="geometry">
            <mxPoint as="offset" />
          </mxGeometry>
        </mxCell>
        <mxCell id="mBkIHYVoxlbKdLeYpv-V-15" value="Yes" style="text;html=1;align=center;verticalAlign=middle;resizable=0;points=[];autosize=1;strokeColor=none;fillColor=none;" vertex="1" parent="1">
          <mxGeometry x="130" y="550" width="40" height="30" as="geometry" />
        </mxCell>
        <mxCell id="mBkIHYVoxlbKdLeYpv-V-16" value="" style="endArrow=none;html=1;rounded=0;entryX=0.5;entryY=1;entryDx=0;entryDy=0;exitX=0.413;exitY=0.167;exitDx=0;exitDy=0;exitPerimeter=0;" edge="1" parent="1" source="mBkIHYVoxlbKdLeYpv-V-18" target="mBkIHYVoxlbKdLeYpv-V-7">
          <mxGeometry width="50" height="50" relative="1" as="geometry">
            <mxPoint x="240" y="480" as="sourcePoint" />
            <mxPoint x="400" y="580" as="targetPoint" />
          </mxGeometry>
        </mxCell>
        <mxCell id="mBkIHYVoxlbKdLeYpv-V-17" value="Overcast" style="edgeLabel;html=1;align=center;verticalAlign=middle;resizable=0;points=[];" vertex="1" connectable="0" parent="mBkIHYVoxlbKdLeYpv-V-16">
          <mxGeometry x="-0.0207" y="3" relative="1" as="geometry">
            <mxPoint as="offset" />
          </mxGeometry>
        </mxCell>
        <mxCell id="mBkIHYVoxlbKdLeYpv-V-18" value="Yes" style="text;html=1;align=center;verticalAlign=middle;resizable=0;points=[];autosize=1;strokeColor=none;fillColor=none;" vertex="1" parent="1">
          <mxGeometry x="221" y="470" width="40" height="30" as="geometry" />
        </mxCell>
        <mxCell id="mBkIHYVoxlbKdLeYpv-V-19" value="Yes" style="text;html=1;align=center;verticalAlign=middle;resizable=0;points=[];autosize=1;strokeColor=none;fillColor=none;" vertex="1" parent="1">
          <mxGeometry x="300" y="468" width="40" height="30" as="geometry" />
        </mxCell>
        <mxCell id="mBkIHYVoxlbKdLeYpv-V-20" value="" style="endArrow=none;html=1;rounded=0;entryX=0.5;entryY=1;entryDx=0;entryDy=0;" edge="1" parent="1" source="mBkIHYVoxlbKdLeYpv-V-19" target="mBkIHYVoxlbKdLeYpv-V-7">
          <mxGeometry width="50" height="50" relative="1" as="geometry">
            <mxPoint x="350" y="630" as="sourcePoint" />
            <mxPoint x="400" y="580" as="targetPoint" />
          </mxGeometry>
        </mxCell>
        <mxCell id="mBkIHYVoxlbKdLeYpv-V-21" value="Rain" style="edgeLabel;html=1;align=center;verticalAlign=middle;resizable=0;points=[];" vertex="1" connectable="0" parent="mBkIHYVoxlbKdLeYpv-V-20">
          <mxGeometry x="-0.082" y="1" relative="1" as="geometry">
            <mxPoint as="offset" />
          </mxGeometry>
        </mxCell>
        <mxCell id="mBkIHYVoxlbKdLeYpv-V-22" value="Outlook" style="rounded=0;whiteSpace=wrap;html=1;" vertex="1" parent="1">
          <mxGeometry x="425" y="320" width="120" height="60" as="geometry" />
        </mxCell>
        <mxCell id="mBkIHYVoxlbKdLeYpv-V-23" value="" style="endArrow=none;html=1;rounded=0;entryX=0.5;entryY=1;entryDx=0;entryDy=0;exitX=0.5;exitY=0;exitDx=0;exitDy=0;" edge="1" parent="1" source="mBkIHYVoxlbKdLeYpv-V-39" target="mBkIHYVoxlbKdLeYpv-V-22">
          <mxGeometry width="50" height="50" relative="1" as="geometry">
            <mxPoint x="410" y="440" as="sourcePoint" />
            <mxPoint x="490" y="480" as="targetPoint" />
          </mxGeometry>
        </mxCell>
        <mxCell id="mBkIHYVoxlbKdLeYpv-V-24" value="Sunny" style="edgeLabel;html=1;align=center;verticalAlign=middle;resizable=0;points=[];" vertex="1" connectable="0" parent="mBkIHYVoxlbKdLeYpv-V-23">
          <mxGeometry x="-0.0244" y="1" relative="1" as="geometry">
            <mxPoint as="offset" />
          </mxGeometry>
        </mxCell>
        <mxCell id="mBkIHYVoxlbKdLeYpv-V-33" value="" style="endArrow=none;html=1;rounded=0;exitX=0.475;exitY=0.1;exitDx=0;exitDy=0;exitPerimeter=0;" edge="1" parent="1" source="mBkIHYVoxlbKdLeYpv-V-38" target="mBkIHYVoxlbKdLeYpv-V-22">
          <mxGeometry width="50" height="50" relative="1" as="geometry">
            <mxPoint x="480" y="475" as="sourcePoint" />
            <mxPoint x="483" y="380" as="targetPoint" />
          </mxGeometry>
        </mxCell>
        <mxCell id="mBkIHYVoxlbKdLeYpv-V-34" value="Overcast" style="edgeLabel;html=1;align=center;verticalAlign=middle;resizable=0;points=[];" vertex="1" connectable="0" parent="mBkIHYVoxlbKdLeYpv-V-33">
          <mxGeometry x="-0.0207" y="3" relative="1" as="geometry">
            <mxPoint as="offset" />
          </mxGeometry>
        </mxCell>
        <mxCell id="mBkIHYVoxlbKdLeYpv-V-35" value="No" style="text;html=1;align=center;verticalAlign=middle;resizable=0;points=[];autosize=1;strokeColor=none;fillColor=none;" vertex="1" parent="1">
          <mxGeometry x="542" y="468" width="40" height="30" as="geometry" />
        </mxCell>
        <mxCell id="mBkIHYVoxlbKdLeYpv-V-36" value="" style="endArrow=none;html=1;rounded=0;entryX=0.5;entryY=1;entryDx=0;entryDy=0;exitX=0.363;exitY=0.167;exitDx=0;exitDy=0;exitPerimeter=0;" edge="1" parent="1" source="mBkIHYVoxlbKdLeYpv-V-35" target="mBkIHYVoxlbKdLeYpv-V-22">
          <mxGeometry width="50" height="50" relative="1" as="geometry">
            <mxPoint x="592" y="630" as="sourcePoint" />
            <mxPoint x="483" y="380" as="targetPoint" />
          </mxGeometry>
        </mxCell>
        <mxCell id="mBkIHYVoxlbKdLeYpv-V-37" value="Rain" style="edgeLabel;html=1;align=center;verticalAlign=middle;resizable=0;points=[];" vertex="1" connectable="0" parent="mBkIHYVoxlbKdLeYpv-V-36">
          <mxGeometry x="-0.082" y="1" relative="1" as="geometry">
            <mxPoint as="offset" />
          </mxGeometry>
        </mxCell>
        <mxCell id="mBkIHYVoxlbKdLeYpv-V-38" value="No" style="text;html=1;align=center;verticalAlign=middle;resizable=0;points=[];autosize=1;strokeColor=none;fillColor=none;" vertex="1" parent="1">
          <mxGeometry x="465" y="468" width="40" height="30" as="geometry" />
        </mxCell>
        <mxCell id="mBkIHYVoxlbKdLeYpv-V-39" value="Temp" style="rounded=0;whiteSpace=wrap;html=1;" vertex="1" parent="1">
          <mxGeometry x="345" y="440" width="120" height="60" as="geometry" />
        </mxCell>
        <mxCell id="mBkIHYVoxlbKdLeYpv-V-40" value="" style="endArrow=none;html=1;rounded=0;entryX=0.5;entryY=1;entryDx=0;entryDy=0;exitX=0.638;exitY=0.15;exitDx=0;exitDy=0;exitPerimeter=0;" edge="1" parent="1" source="mBkIHYVoxlbKdLeYpv-V-42" target="mBkIHYVoxlbKdLeYpv-V-39">
          <mxGeometry width="50" height="50" relative="1" as="geometry">
            <mxPoint x="360" y="550" as="sourcePoint" />
            <mxPoint x="480" y="480" as="targetPoint" />
          </mxGeometry>
        </mxCell>
        <mxCell id="mBkIHYVoxlbKdLeYpv-V-41" value="Hot" style="edgeLabel;html=1;align=center;verticalAlign=middle;resizable=0;points=[];" vertex="1" connectable="0" parent="mBkIHYVoxlbKdLeYpv-V-40">
          <mxGeometry x="-0.0033" y="5" relative="1" as="geometry">
            <mxPoint y="1" as="offset" />
          </mxGeometry>
        </mxCell>
        <mxCell id="mBkIHYVoxlbKdLeYpv-V-42" value="No" style="text;html=1;align=center;verticalAlign=middle;resizable=0;points=[];autosize=1;strokeColor=none;fillColor=none;" vertex="1" parent="1">
          <mxGeometry x="340" y="550" width="40" height="30" as="geometry" />
        </mxCell>
        <mxCell id="mBkIHYVoxlbKdLeYpv-V-43" value="Yes" style="text;html=1;align=center;verticalAlign=middle;resizable=0;points=[];autosize=1;strokeColor=none;fillColor=none;" vertex="1" parent="1">
          <mxGeometry x="430" y="548" width="40" height="30" as="geometry" />
        </mxCell>
        <mxCell id="mBkIHYVoxlbKdLeYpv-V-44" value="" style="endArrow=none;html=1;rounded=0;entryX=0.5;entryY=1;entryDx=0;entryDy=0;" edge="1" parent="1" source="mBkIHYVoxlbKdLeYpv-V-43" target="mBkIHYVoxlbKdLeYpv-V-39">
          <mxGeometry width="50" height="50" relative="1" as="geometry">
            <mxPoint x="430" y="530" as="sourcePoint" />
            <mxPoint x="480" y="480" as="targetPoint" />
          </mxGeometry>
        </mxCell>
        <mxCell id="mBkIHYVoxlbKdLeYpv-V-45" value="Mild" style="edgeLabel;html=1;align=center;verticalAlign=middle;resizable=0;points=[];" vertex="1" connectable="0" parent="mBkIHYVoxlbKdLeYpv-V-44">
          <mxGeometry x="0.0698" y="1" relative="1" as="geometry">
            <mxPoint as="offset" />
          </mxGeometry>
        </mxCell>
      </root>
    </mxGraphModel>
  </diagram>
</mxfile>
